<?xml version="1.0" encoding="UTF-8"?>
<svg width="18px" height="18px" viewBox="0 0 18 18" version="1.1" xmlns="http://www.w3.org/2000/svg" xmlns:xlink="http://www.w3.org/1999/xlink">
    <title>267F64D8-B1DB-49D9-8DC5-BAD1C0B0B78C@1.5x</title>
    <defs>
        <filter color-interpolation-filters="auto" id="filter-1">
            <feColorMatrix in="SourceGraphic" type="matrix" values="0 0 0 0 0.549020 0 0 0 0 0.760784 0 0 0 0 0.239216 0 0 0 1.000000 0"></feColorMatrix>
        </filter>
        <path d="M8.33333333,0 C3.73333333,0 0,3.73333333 0,8.33333333 C0,12.9333333 3.73333333,16.6666667 8.33333333,16.6666667 C12.9333333,16.6666667 16.6666667,12.9333333 16.6666667,8.33333333 C16.6666667,3.73333333 12.9333333,0 8.33333333,0 Z M11.3416667,5.28333333 C12.2333333,5.28333333 12.95,6 12.95,6.89166667 C12.95,7.78333333 12.2333333,8.5 11.3416667,8.5 C10.45,8.5 9.73333333,7.78333333 9.73333333,6.89166667 C9.725,6 10.45,5.28333333 11.3416667,5.28333333 Z M6.34166667,3.96666667 C7.425,3.96666667 8.30833333,4.85 8.30833333,5.93333333 C8.30833333,7.01666667 7.425,7.9 6.34166667,7.9 C5.25833333,7.9 4.375,7.01666667 4.375,5.93333333 C4.375,4.84166667 5.25,3.96666667 6.34166667,3.96666667 Z M6.34166667,11.575 L6.34166667,14.7 C4.34166667,14.075 2.75833333,12.5333333 2.05833333,10.5666667 C2.93333333,9.63333333 5.11666667,9.15833333 6.34166667,9.15833333 C6.78333333,9.15833333 7.34166667,9.225 7.925,9.34166667 C6.55833333,10.0666667 6.34166667,11.025 6.34166667,11.575 Z M8.33333333,15 C8.10833333,15 7.89166667,14.9916667 7.675,14.9666667 L7.675,11.575 C7.675,10.3916667 10.125,9.8 11.3416667,9.8 C12.2333333,9.8 13.775,10.125 14.5416667,10.7583333 C13.5666667,13.2333333 11.1583333,15 8.33333333,15 Z" id="path-2"></path>
    </defs>
    <g id="Back-Office" stroke="none" stroke-width="1" fill="none" fill-rule="evenodd">
        <g id="Back-Office:-Users-4-2" transform="translate(-25.000000, -228.000000)">
            <g id="Menu" transform="translate(-1.000000, 0.000000)">
                <g id="icon/action/supervised_user_circle_24px" transform="translate(8.000000, 213.000000)" filter="url(#filter-1)">
                    <g transform="translate(18.666667, 15.666667)">
                        <mask id="mask-3" fill="white">
                            <use xlink:href="#path-2"></use>
                        </mask>
                        <g fill-rule="nonzero"></g>
                        <g id="Group" mask="url(#mask-3)">
                            <g transform="translate(-1.666667, -1.666667)" id="↳-Color">
                                <rect id="Rectangle" fill="#000000" x="0" y="0" width="20" height="20"></rect>
                            </g>
                        </g>
                    </g>
                </g>
            </g>
        </g>
    </g>
</svg>